<?xml version="1.0" encoding="UTF-8" standalone="no"?>
<!DOCTYPE svg PUBLIC "-//W3C//DTD SVG 1.1//EN"
 "http://www.w3.org/Graphics/SVG/1.1/DTD/svg11.dtd">
<!-- Generated by graphviz version 2.40.1 (20161225.0304)
 -->
<!-- Title: UmlClassDiagram Pages: 1 -->
<svg width="682pt" height="634pt"
 viewBox="0.00 0.00 682.23 634.20" xmlns="http://www.w3.org/2000/svg" xmlns:xlink="http://www.w3.org/1999/xlink">
<g id="graph0" class="graph" transform="scale(1 1) rotate(0) translate(4 630.2)">
<title>UmlClassDiagram</title>
<polygon fill="#ffffff" stroke="transparent" points="-4,4 -4,-630.2 678.2252,-630.2 678.2252,4 -4,4"/>
<!-- 5 -->
<g id="node1" class="node">
<title>5</title>
<polygon fill="#f2f2f2" stroke="#000000" points="136.5915,-416.9 136.5915,-625.7 653.4555,-625.7 653.4555,-416.9 136.5915,-416.9"/>
<text text-anchor="middle" x="395.0235" y="-609.1" font-family="Times,serif" font-size="14.00" fill="#000000">DoctorVisitBase</text>
<polyline fill="none" stroke="#000000" points="136.5915,-600.9 653.4555,-600.9 "/>
<text text-anchor="start" x="144.5915" y="-584.3" font-family="Times,serif" font-size="14.00" fill="#000000">Public:</text>
<text text-anchor="start" x="144.5915" y="-567.5" font-family="Times,serif" font-size="14.00" fill="#000000"> &#160;&#160;visitCount: uint</text>
<text text-anchor="start" x="144.5915" y="-550.7" font-family="Times,serif" font-size="14.00" fill="#000000"> &#160;&#160;visits: mapping(uint=&gt;Visit)</text>
<text text-anchor="start" x="144.5915" y="-533.9" font-family="Times,serif" font-size="14.00" fill="#000000"> &#160;&#160;DoctorVisitIndexToDocumentId: mapping(uint=&gt;uint)</text>
<polyline fill="none" stroke="#000000" points="136.5915,-525.7 653.4555,-525.7 "/>
<text text-anchor="start" x="144.5915" y="-509.1" font-family="Times,serif" font-size="14.00" fill="#000000">Internal:</text>
<text text-anchor="start" x="144.5915" y="-492.3" font-family="Times,serif" font-size="14.00" fill="#000000"> &#160;&#160;&#160;createVisit(_empId: uint, _couponId: uint, _doctorId: uint): (visitId: uint)</text>
<text text-anchor="start" x="144.5915" y="-475.5" font-family="Times,serif" font-size="14.00" fill="#000000">Public:</text>
<text text-anchor="start" x="144.5915" y="-458.7" font-family="Times,serif" font-size="14.00" fill="#000000"> &#160;&#160;&#160;&lt;&lt;event&gt;&gt; VisitCreated(id: uint, empId: uint, couponId: uint, msg: string)</text>
<text text-anchor="start" x="144.5915" y="-441.9" font-family="Times,serif" font-size="14.00" fill="#000000"> &#160;&#160;&#160;constructor()</text>
<text text-anchor="start" x="144.5915" y="-425.1" font-family="Times,serif" font-size="14.00" fill="#000000"> &#160;&#160;&#160;getDoctorVisit(_visitid: uint): (visitid: uint, empid: uint, couponid: uint, doctorid: uint)</text>
</g>
<!-- 5struct0 -->
<g id="node2" class="node">
<title>5struct0</title>
<polygon fill="#f2f2f2" stroke="#000000" points="0,-217.1 0,-333.9 98.047,-333.9 98.047,-217.1 0,-217.1"/>
<text text-anchor="middle" x="49.0235" y="-317.3" font-family="Times,serif" font-size="14.00" fill="#000000">&lt;&lt;struct&gt;&gt;</text>
<text text-anchor="middle" x="49.0235" y="-300.5" font-family="Times,serif" font-size="14.00" fill="#000000">Visit</text>
<polyline fill="none" stroke="#000000" points="0,-292.3 98.047,-292.3 "/>
<text text-anchor="start" x="8" y="-275.7" font-family="Times,serif" font-size="14.00" fill="#000000">id: uint</text>
<text text-anchor="start" x="8" y="-258.9" font-family="Times,serif" font-size="14.00" fill="#000000">empId: uint</text>
<text text-anchor="start" x="8" y="-242.1" font-family="Times,serif" font-size="14.00" fill="#000000">couponId: uint</text>
<text text-anchor="start" x="8" y="-225.3" font-family="Times,serif" font-size="14.00" fill="#000000">doctorId: uint</text>
</g>
<!-- 5struct0&#45;&gt;5 -->
<g id="edge1" class="edge">
<title>5struct0&#45;&gt;5</title>
<path fill="none" stroke="#000000" d="M73.2929,-334.0658C82.1308,-350.5082 93.3772,-367.4205 107.0235,-380.4 117.9236,-390.7675 129.7319,-400.5163 142.1352,-409.6616"/>
<polygon fill="#000000" stroke="#000000" points="142.4453,-409.8834 149.6524,-410.1221 152.204,-416.8667 144.9969,-416.628 142.4453,-409.8834"/>
</g>
<!-- 6 -->
<g id="node3" class="node">
<title>6</title>
<polygon fill="#f2f2f2" stroke="#000000" points="115.8218,-171.1 115.8218,-379.9 674.2252,-379.9 674.2252,-171.1 115.8218,-171.1"/>
<text text-anchor="middle" x="395.0235" y="-363.3" font-family="Times,serif" font-size="14.00" fill="#000000">VisitDocumentBase</text>
<polyline fill="none" stroke="#000000" points="115.8218,-355.1 674.2252,-355.1 "/>
<text text-anchor="start" x="123.8218" y="-338.5" font-family="Times,serif" font-size="14.00" fill="#000000">Public:</text>
<text text-anchor="start" x="123.8218" y="-321.7" font-family="Times,serif" font-size="14.00" fill="#000000"> &#160;&#160;VisitDocumentCount: uint</text>
<text text-anchor="start" x="123.8218" y="-304.9" font-family="Times,serif" font-size="14.00" fill="#000000"> &#160;&#160;VisitDocuments: mapping(uint=&gt;VisitDoc)</text>
<text text-anchor="start" x="123.8218" y="-288.1" font-family="Times,serif" font-size="14.00" fill="#000000"> &#160;&#160;VisitDocumentBasehash: mapping(bytes32=&gt;uint)</text>
<polyline fill="none" stroke="#000000" points="115.8218,-279.9 674.2252,-279.9 "/>
<text text-anchor="start" x="123.8218" y="-263.3" font-family="Times,serif" font-size="14.00" fill="#000000">Internal:</text>
<text text-anchor="start" x="123.8218" y="-246.5" font-family="Times,serif" font-size="14.00" fill="#000000"> &#160;&#160;&#160;addVisitDocument(_doctorvisitId: uint, _empId: uint, _docHash: bytes32): (documentId: uint)</text>
<text text-anchor="start" x="123.8218" y="-229.7" font-family="Times,serif" font-size="14.00" fill="#000000">Public:</text>
<text text-anchor="start" x="123.8218" y="-212.9" font-family="Times,serif" font-size="14.00" fill="#000000"> &#160;&#160;&#160;&lt;&lt;event&gt;&gt; VisitDocumentAddition(documentID: uint, msg: string)</text>
<text text-anchor="start" x="123.8218" y="-196.1" font-family="Times,serif" font-size="14.00" fill="#000000"> &#160;&#160;&#160;constructor()</text>
<text text-anchor="start" x="123.8218" y="-179.3" font-family="Times,serif" font-size="14.00" fill="#000000"> &#160;&#160;&#160;_documentExists(_docHash: bytes32): bool</text>
</g>
<!-- 6&#45;&gt;5 -->
<g id="edge3" class="edge">
<title>6&#45;&gt;5</title>
<path fill="none" stroke="#000000" d="M395.0235,-380.0977C395.0235,-382.2813 395.0235,-384.4727 395.0235,-386.6692"/>
<polygon fill="none" stroke="#000000" points="384.5236,-386.7962 395.0235,-416.7962 405.5236,-386.7963 384.5236,-386.7962"/>
</g>
<!-- 6struct0 -->
<g id="node4" class="node">
<title>6struct0</title>
<polygon fill="#f2f2f2" stroke="#000000" points="333.1662,-.5 333.1662,-134.1 456.8808,-134.1 456.8808,-.5 333.1662,-.5"/>
<text text-anchor="middle" x="395.0235" y="-117.5" font-family="Times,serif" font-size="14.00" fill="#000000">&lt;&lt;struct&gt;&gt;</text>
<text text-anchor="middle" x="395.0235" y="-100.7" font-family="Times,serif" font-size="14.00" fill="#000000">VisitDoc</text>
<polyline fill="none" stroke="#000000" points="333.1662,-92.5 456.8808,-92.5 "/>
<text text-anchor="start" x="341.1662" y="-75.9" font-family="Times,serif" font-size="14.00" fill="#000000">id: uint</text>
<text text-anchor="start" x="341.1662" y="-59.1" font-family="Times,serif" font-size="14.00" fill="#000000">_doctorvisitId: uint</text>
<text text-anchor="start" x="341.1662" y="-42.3" font-family="Times,serif" font-size="14.00" fill="#000000">_empId: uint</text>
<text text-anchor="start" x="341.1662" y="-25.5" font-family="Times,serif" font-size="14.00" fill="#000000">_docHash: bytes32</text>
<text text-anchor="start" x="341.1662" y="-8.7" font-family="Times,serif" font-size="14.00" fill="#000000">flag: uint</text>
</g>
<!-- 6struct0&#45;&gt;6 -->
<g id="edge2" class="edge">
<title>6struct0&#45;&gt;6</title>
<path fill="none" stroke="#000000" d="M395.0235,-134.3218C395.0235,-142.2288 395.0235,-150.4641 395.0235,-158.8089"/>
<polygon fill="#000000" stroke="#000000" points="395.0236,-159.0879 399.0235,-165.0879 395.0235,-171.0879 391.0235,-165.0878 395.0236,-159.0879"/>
</g>
</g>
</svg>
