<?xml version="1.0" encoding="UTF-8" standalone="no"?>
<!DOCTYPE svg PUBLIC "-//W3C//DTD SVG 1.1//EN"
 "http://www.w3.org/Graphics/SVG/1.1/DTD/svg11.dtd">
<!-- Generated by graphviz version 2.40.1 (20161225.0304)
 -->
<!-- Title: UmlClassDiagram Pages: 1 -->
<svg width="433pt" height="337pt"
 viewBox="0.00 0.00 433.42 337.00" xmlns="http://www.w3.org/2000/svg" xmlns:xlink="http://www.w3.org/1999/xlink">
<g id="graph0" class="graph" transform="scale(1 1) rotate(0) translate(4 333)">
<title>UmlClassDiagram</title>
<polygon fill="#ffffff" stroke="transparent" points="-4,4 -4,-333 429.4166,-333 429.4166,4 -4,4"/>
<!-- 0 -->
<g id="node1" class="node">
<title>0</title>
<polygon fill="#f2f2f2" stroke="#000000" points="171.9972,-292.5 171.9972,-328.5 226.0856,-328.5 226.0856,-292.5 171.9972,-292.5"/>
<text text-anchor="middle" x="199.0414" y="-306.4" font-family="Times,serif" font-size="14.00" fill="#000000">Owner</text>
</g>
<!-- 1 -->
<g id="node2" class="node">
<title>1</title>
<polygon fill="#f2f2f2" stroke="#000000" points="112.5,-219.5 112.5,-255.5 187.5828,-255.5 187.5828,-219.5 112.5,-219.5"/>
<text text-anchor="middle" x="150.0414" y="-233.4" font-family="Times,serif" font-size="14.00" fill="#000000">UserInvite</text>
</g>
<!-- 1&#45;&gt;0 -->
<g id="edge1" class="edge">
<title>1&#45;&gt;0</title>
<path fill="none" stroke="#000000" d="M162.1538,-255.5449C164.6274,-259.2301 167.3296,-263.2558 170.1106,-267.3989"/>
<polygon fill="none" stroke="#000000" points="161.4607,-273.3526 186.8986,-292.4096 178.897,-261.6488 161.4607,-273.3526"/>
</g>
<!-- 2 -->
<g id="node3" class="node">
<title>2</title>
<polygon fill="#f2f2f2" stroke="#000000" points="100.0547,-146.5 100.0547,-182.5 200.0281,-182.5 200.0281,-146.5 100.0547,-146.5"/>
<text text-anchor="middle" x="150.0414" y="-160.4" font-family="Times,serif" font-size="14.00" fill="#000000">EmployeeBase</text>
</g>
<!-- 2&#45;&gt;1 -->
<g id="edge2" class="edge">
<title>2&#45;&gt;1</title>
<path fill="none" stroke="#000000" d="M150.0414,-182.5449C150.0414,-184.6507 150.0414,-186.8678 150.0414,-189.1543"/>
<polygon fill="none" stroke="#000000" points="139.5415,-189.4096 150.0414,-219.4096 160.5415,-189.4097 139.5415,-189.4096"/>
</g>
<!-- 3 -->
<g id="node4" class="node">
<title>3</title>
<polygon fill="#f2f2f2" stroke="#000000" points="0,-146.5 0,-182.5 82.0828,-182.5 82.0828,-146.5 0,-146.5"/>
<text text-anchor="middle" x="41.0414" y="-160.4" font-family="Times,serif" font-size="14.00" fill="#000000">DoctorBase</text>
</g>
<!-- 3&#45;&gt;1 -->
<g id="edge3" class="edge">
<title>3&#45;&gt;1</title>
<path fill="none" stroke="#000000" d="M67.9852,-182.5449C77.025,-188.5991 87.4374,-195.5725 97.7445,-202.4755"/>
<polygon fill="none" stroke="#000000" points="92.2607,-211.4401 123.0298,-219.4096 103.9463,-193.9917 92.2607,-211.4401"/>
</g>
<!-- 4 -->
<g id="node5" class="node">
<title>4</title>
<polygon fill="#f2f2f2" stroke="#000000" points="217.8731,-146.5 217.8731,-182.5 278.2097,-182.5 278.2097,-146.5 217.8731,-146.5"/>
<text text-anchor="middle" x="248.0414" y="-160.4" font-family="Times,serif" font-size="14.00" fill="#000000">Coupon</text>
</g>
<!-- 4&#45;&gt;0 -->
<g id="edge4" class="edge">
<title>4&#45;&gt;0</title>
<path fill="none" stroke="#000000" d="M241.9346,-182.6958C235.1857,-202.8046 224.0488,-235.9881 214.8145,-263.5026"/>
<polygon fill="none" stroke="#000000" points="204.8162,-260.2931 205.2252,-292.0749 224.7248,-266.9748 204.8162,-260.2931"/>
</g>
<!-- 5 -->
<g id="node6" class="node">
<title>5</title>
<polygon fill="#f2f2f2" stroke="#000000" points="306.3885,-219.5 306.3885,-255.5 415.6943,-255.5 415.6943,-219.5 306.3885,-219.5"/>
<text text-anchor="middle" x="361.0414" y="-233.4" font-family="Times,serif" font-size="14.00" fill="#000000">DoctorVisitBase</text>
</g>
<!-- 6 -->
<g id="node7" class="node">
<title>6</title>
<polygon fill="#f2f2f2" stroke="#000000" points="296.6662,-146.5 296.6662,-182.5 425.4166,-182.5 425.4166,-146.5 296.6662,-146.5"/>
<text text-anchor="middle" x="361.0414" y="-160.4" font-family="Times,serif" font-size="14.00" fill="#000000">VisitDocumentBase</text>
</g>
<!-- 6&#45;&gt;5 -->
<g id="edge5" class="edge">
<title>6&#45;&gt;5</title>
<path fill="none" stroke="#000000" d="M361.0414,-182.5449C361.0414,-184.6507 361.0414,-186.8678 361.0414,-189.1543"/>
<polygon fill="none" stroke="#000000" points="350.5415,-189.4096 361.0414,-219.4096 371.5415,-189.4097 350.5415,-189.4096"/>
</g>
<!-- 7 -->
<g id="node8" class="node">
<title>7</title>
<polygon fill="#f2f2f2" stroke="#000000" points="204.054,-73.5 204.054,-109.5 304.0288,-109.5 304.0288,-73.5 204.054,-73.5"/>
<text text-anchor="middle" x="254.0414" y="-87.4" font-family="Times,serif" font-size="14.00" fill="#000000">EmployeeCore</text>
</g>
<!-- 7&#45;&gt;2 -->
<g id="edge7" class="edge">
<title>7&#45;&gt;2</title>
<path fill="none" stroke="#000000" d="M228.3335,-109.5449C219.9584,-115.4236 210.3485,-122.1691 200.7947,-128.8751"/>
<polygon fill="none" stroke="#000000" points="194.3363,-120.5799 175.814,-146.4096 206.4012,-137.7682 194.3363,-120.5799"/>
</g>
<!-- 7&#45;&gt;4 -->
<g id="edge6" class="edge">
<title>7&#45;&gt;4</title>
<path fill="none" stroke="#000000" d="M252.5583,-109.5449C252.378,-111.7385 252.1878,-114.0527 251.9915,-116.4405"/>
<polygon fill="none" stroke="#000000" points="241.5211,-115.6503 249.5283,-146.4096 262.4505,-117.3706 241.5211,-115.6503"/>
</g>
<!-- 7&#45;&gt;6 -->
<g id="edge8" class="edge">
<title>7&#45;&gt;6</title>
<path fill="none" stroke="#000000" d="M280.4908,-109.5449C289.3648,-115.5991 299.5861,-122.5725 309.7041,-129.4755"/>
<polygon fill="none" stroke="#000000" points="303.8259,-138.176 334.5254,-146.4096 315.661,-120.8286 303.8259,-138.176"/>
</g>
<!-- 8 -->
<g id="node9" class="node">
<title>8</title>
<polygon fill="#f2f2f2" stroke="#000000" points="100.4453,-73.5 100.4453,-109.5 185.6375,-109.5 185.6375,-73.5 100.4453,-73.5"/>
<text text-anchor="middle" x="143.0414" y="-87.4" font-family="Times,serif" font-size="14.00" fill="#000000">HRManager</text>
</g>
<!-- 8&#45;&gt;2 -->
<g id="edge10" class="edge">
<title>8&#45;&gt;2</title>
<path fill="none" stroke="#000000" d="M144.7717,-109.5449C144.9821,-111.7385 145.204,-114.0527 145.433,-116.4405"/>
<polygon fill="none" stroke="#000000" points="134.991,-117.5489 148.3067,-146.4096 155.8951,-115.5443 134.991,-117.5489"/>
</g>
<!-- 8&#45;&gt;3 -->
<g id="edge11" class="edge">
<title>8&#45;&gt;3</title>
<path fill="none" stroke="#000000" d="M117.8279,-109.5449C109.6139,-115.4236 100.1888,-122.1691 90.8187,-128.8751"/>
<polygon fill="none" stroke="#000000" points="84.6033,-120.4113 66.3183,-146.4096 96.8251,-137.4884 84.6033,-120.4113"/>
</g>
<!-- 8&#45;&gt;4 -->
<g id="edge9" class="edge">
<title>8&#45;&gt;4</title>
<path fill="none" stroke="#000000" d="M168.9965,-109.5449C177.5783,-115.5114 187.4443,-122.3706 197.2319,-129.1753"/>
<polygon fill="none" stroke="#000000" points="191.3953,-137.9057 222.021,-146.4096 203.3829,-120.6634 191.3953,-137.9057"/>
</g>
<!-- 9 -->
<g id="node10" class="node">
<title>9</title>
<polygon fill="#f2f2f2" stroke="#000000" points="170.2132,-.5 170.2132,-36.5 225.8696,-36.5 225.8696,-.5 170.2132,-.5"/>
<text text-anchor="middle" x="198.0414" y="-14.4" font-family="Times,serif" font-size="14.00" fill="#000000">MyNet</text>
</g>
<!-- 9&#45;&gt;7 -->
<g id="edge12" class="edge">
<title>9&#45;&gt;7</title>
<path fill="none" stroke="#000000" d="M211.8841,-36.5449C214.9803,-40.5811 218.3899,-45.0257 221.888,-49.5857"/>
<polygon fill="none" stroke="#000000" points="213.573,-55.9976 240.1639,-73.4096 230.2351,-43.2157 213.573,-55.9976"/>
</g>
<!-- 9&#45;&gt;8 -->
<g id="edge13" class="edge">
<title>9&#45;&gt;8</title>
<path fill="none" stroke="#000000" d="M184.4459,-36.5449C181.4711,-40.4933 178.2017,-44.8327 174.8446,-49.2885"/>
<polygon fill="none" stroke="#000000" points="166.3374,-43.1307 156.6711,-73.4096 183.1098,-55.7674 166.3374,-43.1307"/>
</g>
</g>
</svg>
